<svg viewBox="0 0 268 268" fill="none" xmlns="http://www.w3.org/2000/svg">
<path opacity="0.6" d="M59 49C59 40.7157 65.7157 34 74 34H194C202.284 34 209 40.7157 209 49V169C209 177.284 202.284 184 194 184H74C65.7157 184 59 177.284 59 169V49Z" fill="#F9F9F9"/>
<g filter="url(#filter0_d_6_876)">
<path d="M70.25 58C70.25 50.9584 75.9584 45.25 83 45.25H185C192.042 45.25 197.75 50.9584 197.75 58V160C197.75 167.042 192.042 172.75 185 172.75H83C75.9584 172.75 70.25 167.042 70.25 160V58Z" fill="#F9F9F9"/>
</g>
<path fill-rule="evenodd" clip-rule="evenodd" d="M141.429 126.557C141.429 124.498 143.098 122.829 145.157 122.829H160.535C162.594 122.829 164.263 124.498 164.263 126.557V134.945C164.263 137.004 162.594 138.673 160.535 138.673H145.157C143.098 138.673 141.429 137.004 141.429 134.945V126.557ZM145.157 125.625C144.642 125.625 144.225 126.042 144.225 126.557V134.945C144.225 135.46 144.642 135.877 145.157 135.877H160.535C161.05 135.877 161.467 135.46 161.467 134.945V126.557C161.467 126.042 161.05 125.625 160.535 125.625H145.157Z" fill="black"/>
<path fill-rule="evenodd" clip-rule="evenodd" d="M146.555 119.684C146.555 116.273 149.319 113.509 152.73 113.509C156.14 113.509 158.904 116.273 158.904 119.684V123.761C158.904 124.533 158.278 125.159 157.506 125.159C156.734 125.159 156.108 124.533 156.108 123.761V119.684C156.108 117.818 154.595 116.305 152.73 116.305C150.864 116.305 149.351 117.818 149.351 119.684V123.761C149.351 124.533 148.725 125.159 147.953 125.159C147.181 125.159 146.555 124.533 146.555 123.761V119.684Z" fill="black"/>
<path fill-rule="evenodd" clip-rule="evenodd" d="M112.536 78.0927C113.113 78.0927 113.63 78.4466 113.839 78.984L120.364 95.7602C120.643 96.4798 120.287 97.29 119.567 97.5698C118.848 97.8497 118.037 97.4932 117.758 96.7736L112.536 83.3478L107.315 96.7736C107.036 97.4932 106.225 97.8497 105.506 97.5698C104.786 97.29 104.43 96.4798 104.709 95.7602L111.234 78.984C111.443 78.4466 111.96 78.0927 112.536 78.0927Z" fill="black"/>
<path fill-rule="evenodd" clip-rule="evenodd" d="M116.73 92.0728H108.109V89.2767H116.73V92.0728Z" fill="black"/>
<path fill-rule="evenodd" clip-rule="evenodd" d="M121.624 79.4907C121.624 78.7186 122.249 78.0927 123.022 78.0927H130.711C131.483 78.0927 132.109 78.7186 132.109 79.4907V89.7428C132.109 90.5149 131.483 91.1408 130.711 91.1408H124.42V96.4999C124.42 97.272 123.794 97.8979 123.022 97.8979C122.249 97.8979 121.624 97.272 121.624 96.4999V79.4907ZM124.42 88.3448H129.313V80.8887H124.42V88.3448Z" fill="black"/>
<path fill-rule="evenodd" clip-rule="evenodd" d="M136.769 77.8597C137.541 77.8597 138.167 78.4857 138.167 79.2578V96.733C138.167 97.5051 137.541 98.131 136.769 98.131C135.997 98.131 135.371 97.5051 135.371 96.733V79.2578C135.371 78.4857 135.997 77.8597 136.769 77.8597Z" fill="black"/>
<path d="M150.283 97.1989C150.283 95.3974 151.743 93.9369 153.545 93.9369H159.137C160.939 93.9369 162.399 95.3974 162.399 97.1989V102.791C162.399 104.593 160.939 106.053 159.137 106.053H153.545C151.743 106.053 150.283 104.593 150.283 102.791V97.1989Z" fill="#74D1EA"/>
<path fill-rule="evenodd" clip-rule="evenodd" d="M148.885 97.1989C148.885 94.6252 150.971 92.5388 153.545 92.5388H159.137C161.711 92.5388 163.797 94.6252 163.797 97.1989V102.791C163.797 105.365 161.711 107.451 159.137 107.451H153.545C150.971 107.451 148.885 105.365 148.885 102.791V97.1989ZM153.545 95.3349C152.516 95.3349 151.681 96.1694 151.681 97.1989V102.791C151.681 103.82 152.516 104.655 153.545 104.655H159.137C160.167 104.655 161.001 103.82 161.001 102.791V97.1989C161.001 96.1694 160.167 95.3349 159.137 95.3349H153.545Z" fill="black"/>
<path d="M128.381 110.247C128.381 108.445 129.841 106.985 131.643 106.985H137.235C139.036 106.985 140.497 108.445 140.497 110.247V115.839C140.497 117.641 139.036 119.101 137.235 119.101H131.643C129.841 119.101 128.381 117.641 128.381 115.839V110.247Z" fill="#74D1EA"/>
<path fill-rule="evenodd" clip-rule="evenodd" d="M126.983 110.247C126.983 107.673 129.069 105.587 131.643 105.587H137.235C139.808 105.587 141.895 107.673 141.895 110.247V115.839C141.895 118.413 139.808 120.499 137.235 120.499H131.643C129.069 120.499 126.983 118.413 126.983 115.839V110.247ZM131.643 108.383C130.613 108.383 129.779 109.218 129.779 110.247V115.839C129.779 116.869 130.613 117.703 131.643 117.703H137.235C138.264 117.703 139.099 116.869 139.099 115.839V110.247C139.099 109.218 138.264 108.383 137.235 108.383H131.643Z" fill="black"/>
<path d="M106.012 122.829C106.012 121.028 107.473 119.567 109.274 119.567H114.867C116.668 119.567 118.129 121.028 118.129 122.829V128.421C118.129 130.223 116.668 131.683 114.867 131.683H109.274C107.473 131.683 106.012 130.223 106.012 128.421V122.829Z" fill="#74D1EA"/>
<path fill-rule="evenodd" clip-rule="evenodd" d="M104.614 122.829C104.614 120.255 106.701 118.169 109.274 118.169H114.866C117.44 118.169 119.526 120.255 119.526 122.829V128.421C119.526 130.995 117.44 133.081 114.866 133.081H109.274C106.701 133.081 104.614 130.995 104.614 128.421V122.829ZM109.274 120.965C108.245 120.965 107.41 121.8 107.41 122.829V128.421C107.41 129.451 108.245 130.285 109.274 130.285H114.866C115.896 130.285 116.73 129.451 116.73 128.421V122.829C116.73 121.8 115.896 120.965 114.866 120.965H109.274Z" fill="black"/>
<path fill-rule="evenodd" clip-rule="evenodd" d="M141.196 86.9468C141.196 86.1747 141.822 85.5488 142.594 85.5488H156.108C156.88 85.5488 157.506 86.1747 157.506 86.9468V93.9369C157.506 94.709 156.88 95.3349 156.108 95.3349C155.336 95.3349 154.71 94.709 154.71 93.9369V88.3449H142.594C141.822 88.3449 141.196 87.7189 141.196 86.9468Z" fill="black"/>
<path fill-rule="evenodd" clip-rule="evenodd" d="M118.362 100.461L118.362 109.548C118.362 109.919 118.214 110.274 117.952 110.537C117.69 110.799 117.334 110.946 116.964 110.946L113.469 110.946L113.469 118.402C113.469 119.174 112.843 119.8 112.07 119.8C111.298 119.8 110.672 119.174 110.672 118.402L110.672 109.548C110.672 108.776 111.298 108.15 112.07 108.15L115.566 108.15L115.566 100.461C115.566 99.6888 116.191 99.0629 116.964 99.0629C117.736 99.0629 118.362 99.6888 118.362 100.461Z" fill="black"/>
<path fill-rule="evenodd" clip-rule="evenodd" d="M135.604 102.791L135.604 106.752C135.604 107.524 134.978 108.15 134.206 108.15C133.434 108.15 132.808 107.524 132.808 106.752L132.808 104.189L128.847 104.189C128.476 104.189 128.12 104.042 127.858 103.78C127.596 103.517 127.449 103.162 127.449 102.791L127.449 100.228C127.449 99.4559 128.075 98.83 128.847 98.83C129.619 98.83 130.245 99.4559 130.245 100.228L130.245 101.393L134.206 101.393C134.978 101.393 135.604 102.019 135.604 102.791Z" fill="black"/>
<defs>
<filter id="filter0_d_6_876" x="0.25" y="0.25" width="267.5" height="267.5" filterUnits="userSpaceOnUse" color-interpolation-filters="sRGB">
<feFlood flood-opacity="0" result="BackgroundImageFix"/>
<feColorMatrix in="SourceAlpha" type="matrix" values="0 0 0 0 0 0 0 0 0 0 0 0 0 0 0 0 0 0 127 0" result="hardAlpha"/>
<feOffset dy="25"/>
<feGaussianBlur stdDeviation="35"/>
<feColorMatrix type="matrix" values="0 0 0 0 0 0 0 0 0 0 0 0 0 0 0 0 0 0 0.1 0"/>
<feBlend mode="normal" in2="BackgroundImageFix" result="effect1_dropShadow_6_876"/>
<feBlend mode="normal" in="SourceGraphic" in2="effect1_dropShadow_6_876" result="shape"/>
</filter>
</defs>
</svg>
