<svg width="165" height="158" viewBox="0 0 165 158" fill="none" xmlns="http://www.w3.org/2000/svg">
<circle r="5" transform="matrix(1 0 0 -1 159 152)" fill="#F7F7F7" stroke="#C8C8C8" stroke-width="2"/>
<path d="M154 151C154.552 151 155 151.448 155 152C155 152.552 154.552 153 154 153V151ZM0.791667 0C1.34395 0 1.79167 0.447715 1.79167 1C1.79167 1.55228 1.34395 2 0.791667 2V0ZM1.20833 2C0.656049 2 0.208333 1.55228 0.208333 1C0.208333 0.447715 0.656049 0 1.20833 0V2ZM4.85883 0.126335C5.40955 0.16792 5.82229 0.648074 5.7807 1.19879C5.73912 1.74951 5.25896 2.16224 4.70825 2.12066L4.85883 0.126335ZM9.2489 2.71318C8.70597 2.61193 8.34793 2.08972 8.44917 1.5468C8.55042 1.00387 9.07263 0.645824 9.61555 0.747072L9.2489 2.71318ZM16.1018 2.48111C16.6228 2.66433 16.8966 3.23523 16.7134 3.75623C16.5302 4.27724 15.9593 4.55106 15.4383 4.36783L16.1018 2.48111ZM19.6673 6.12147C19.1695 5.88227 18.9599 5.28481 19.1991 4.78702C19.4383 4.28922 20.0357 4.07958 20.5335 4.31878L19.6673 6.12147ZM26.3452 7.68094C26.8008 7.99317 26.917 8.61558 26.6048 9.07114C26.2925 9.5267 25.6701 9.64289 25.2146 9.33067L26.3452 7.68094ZM28.8464 12.1215C28.4274 11.7617 28.3794 11.1304 28.7391 10.7113C29.0989 10.2923 29.7303 10.2443 30.1493 10.6041L28.8464 12.1215ZM34.8959 15.3507C35.2557 15.7697 35.2077 16.4011 34.7887 16.7609C34.3696 17.1206 33.7383 17.0726 33.3785 16.6536L34.8959 15.3507ZM36.1693 20.2854C35.8571 19.8299 35.9733 19.2075 36.4289 18.8952C36.8844 18.583 37.5068 18.6992 37.8191 19.1548L36.1693 20.2854ZM41.1812 24.9665C41.4204 25.4643 41.2108 26.0617 40.713 26.3009C40.2152 26.5401 39.6177 26.3305 39.3785 25.8327L41.1812 24.9665ZM41.1322 30.0617C40.9489 29.5407 41.2228 28.9698 41.7438 28.7866C42.2648 28.6034 42.8357 28.8772 43.0189 29.3982L41.1322 30.0617ZM44.7529 35.8845C44.8542 36.4274 44.4961 36.9496 43.9532 37.0508C43.4103 37.1521 42.8881 36.794 42.7868 36.2511L44.7529 35.8845ZM43.3793 40.7918C43.3378 40.241 43.7505 39.7609 44.3012 39.7193C44.8519 39.6777 45.3321 40.0904 45.3737 40.6412L43.3793 40.7918ZM45.5 47.7917C45.5 48.344 45.0523 48.7917 44.5 48.7917C43.9477 48.7917 43.5 48.344 43.5 47.7917H45.5ZM43.5 53.2083C43.5 52.656 43.9477 52.2083 44.5 52.2083C45.0523 52.2083 45.5 52.656 45.5 53.2083H43.5ZM45.5 60.7917C45.5 61.344 45.0523 61.7917 44.5 61.7917C43.9477 61.7917 43.5 61.344 43.5 60.7917H45.5ZM43.5 66.2083C43.5 65.656 43.9477 65.2083 44.5 65.2083C45.0523 65.2083 45.5 65.656 45.5 66.2083H43.5ZM45.5 73.7917C45.5 74.344 45.0523 74.7917 44.5 74.7917C43.9477 74.7917 43.5 74.344 43.5 73.7917H45.5ZM43.5 79.2083C43.5 78.656 43.9477 78.2083 44.5 78.2083C45.0523 78.2083 45.5 78.656 45.5 79.2083H43.5ZM45.5 86.7917C45.5 87.3439 45.0523 87.7917 44.5 87.7917C43.9477 87.7917 43.5 87.3439 43.5 86.7917H45.5ZM43.5 92.2083C43.5 91.656 43.9477 91.2083 44.5 91.2083C45.0523 91.2083 45.5 91.656 45.5 92.2083H43.5ZM45.5 99.7917C45.5 100.344 45.0523 100.792 44.5 100.792C43.9477 100.792 43.5 100.344 43.5 99.7917H45.5ZM43.5 105.208C43.5 104.656 43.9477 104.208 44.5 104.208C45.0523 104.208 45.5 104.656 45.5 105.208H43.5ZM45.6207 112.208C45.6622 112.759 45.2495 113.239 44.6988 113.281C44.1481 113.322 43.6679 112.91 43.6263 112.359L45.6207 112.208ZM44.2471 117.116C44.1458 116.573 44.5039 116.05 45.0468 115.949C45.5897 115.848 46.1119 116.206 46.2132 116.749L44.2471 117.116ZM47.8678 122.938C48.0511 123.459 47.7772 124.03 47.2562 124.213C46.7352 124.397 46.1643 124.123 45.9811 123.602L47.8678 122.938ZM47.8188 128.034C47.5796 127.536 47.7892 126.938 48.287 126.699C48.7848 126.46 49.3823 126.67 49.6215 127.167L47.8188 128.034ZM52.8307 132.715C53.1429 133.17 53.0267 133.793 52.5711 134.105C52.1156 134.417 51.4932 134.301 51.1809 133.845L52.8307 132.715ZM54.1041 137.649C53.7443 137.23 53.7923 136.599 54.2113 136.239C54.6304 135.879 55.2617 135.927 55.6215 136.346L54.1041 137.649ZM60.1536 140.879C60.5726 141.238 60.6206 141.87 60.2609 142.289C59.9011 142.708 59.2697 142.756 58.8507 142.396L60.1536 140.879ZM62.6548 145.319C62.1992 145.007 62.083 144.384 62.3952 143.929C62.7075 143.473 63.3299 143.357 63.7854 143.669L62.6548 145.319ZM69.3327 146.879C69.8305 147.118 70.0401 147.715 69.8009 148.213C69.5617 148.711 68.9643 148.92 68.4665 148.681L69.3327 146.879ZM72.8982 150.519C72.3772 150.336 72.1034 149.765 72.2866 149.244C72.4698 148.723 73.0407 148.449 73.5617 148.632L72.8982 150.519ZM79.7511 150.287C80.294 150.388 80.6521 150.91 80.5508 151.453C80.4496 151.996 79.9274 152.354 79.3844 152.253L79.7511 150.287ZM84.1412 152.874C83.5904 152.832 83.1777 152.352 83.2193 151.801C83.2609 151.25 83.741 150.838 84.2918 150.879L84.1412 152.874ZM90.7326 151C91.2849 151 91.7326 151.448 91.7326 152C91.7326 152.552 91.2849 153 90.7326 153V151ZM95.3507 153C94.7984 153 94.3507 152.552 94.3507 152C94.3507 151.448 94.7984 151 95.3507 151V153ZM101.816 151C102.368 151 102.816 151.448 102.816 152C102.816 152.552 102.368 153 101.816 153V151ZM106.434 153C105.882 153 105.434 152.552 105.434 152C105.434 151.448 105.882 151 106.434 151V153ZM112.899 151C113.452 151 113.899 151.448 113.899 152C113.899 152.552 113.452 153 112.899 153V151ZM117.517 153C116.965 153 116.517 152.552 116.517 152C116.517 151.448 116.965 151 117.517 151V153ZM123.983 151C124.535 151 124.983 151.448 124.983 152C124.983 152.552 124.535 153 123.983 153V151ZM128.601 153C128.048 153 127.601 152.552 127.601 152C127.601 151.448 128.048 151 128.601 151V153ZM135.066 151C135.618 151 136.066 151.448 136.066 152C136.066 152.552 135.618 153 135.066 153V151ZM139.684 153C139.132 153 138.684 152.552 138.684 152C138.684 151.448 139.132 151 139.684 151V153ZM146.149 151C146.702 151 147.149 151.448 147.149 152C147.149 152.552 146.702 153 146.149 153V151ZM150.767 153C150.215 153 149.767 152.552 149.767 152C149.767 151.448 150.215 151 150.767 151V153ZM0.5 0H0.791667V2H0.5V0ZM1.20833 0H1.5V2H1.20833V0ZM1.5 0C2.62989 0 3.75001 0.0426095 4.85883 0.126335L4.70825 2.12066C3.64948 2.04071 2.57959 2 1.5 2V0ZM9.61555 0.747072C11.841 1.16209 14.0076 1.74463 16.1018 2.48111L15.4383 4.36783C13.4401 3.6651 11.3727 3.10923 9.2489 2.71318L9.61555 0.747072ZM20.5335 4.31878C22.562 5.2935 24.5041 6.41909 26.3452 7.68094L25.2146 9.33067C23.4569 8.12604 21.6032 7.05169 19.6673 6.12147L20.5335 4.31878ZM30.1493 10.6041C31.8492 12.0637 33.4363 13.6508 34.8959 15.3507L33.3785 16.6536C31.9849 15.0306 30.4694 13.5151 28.8464 12.1215L30.1493 10.6041ZM37.8191 19.1548C39.0809 20.9959 40.2065 22.938 41.1812 24.9665L39.3785 25.8327C38.4483 23.8968 37.374 22.0431 36.1693 20.2854L37.8191 19.1548ZM43.0189 29.3982C43.7554 31.4924 44.3379 33.659 44.7529 35.8845L42.7868 36.2511C42.3908 34.1273 41.8349 32.0599 41.1322 30.0617L43.0189 29.3982ZM45.3737 40.6412C45.4574 41.75 45.5 42.8701 45.5 44H43.5C43.5 42.9204 43.4593 41.8505 43.3793 40.7918L45.3737 40.6412ZM45.5 44V47.7917H43.5V44H45.5ZM45.5 53.2083V60.7917H43.5V53.2083H45.5ZM45.5 66.2083V73.7917H43.5V66.2083H45.5ZM45.5 79.2083V86.7917H43.5V79.2083H45.5ZM45.5 92.2083V99.7917H43.5V92.2083H45.5ZM45.5 105.208V109H43.5V105.208H45.5ZM45.5 109C45.5 110.08 45.5407 111.149 45.6207 112.208L43.6263 112.359C43.5426 111.25 43.5 110.13 43.5 109H45.5ZM46.2132 116.749C46.6092 118.873 47.1651 120.94 47.8678 122.938L45.9811 123.602C45.2446 121.508 44.6621 119.341 44.2471 117.116L46.2132 116.749ZM49.6215 127.167C50.5517 129.103 51.626 130.957 52.8307 132.715L51.1809 133.845C49.9191 132.004 48.7935 130.062 47.8188 128.034L49.6215 127.167ZM55.6215 136.346C57.0151 137.969 58.5306 139.485 60.1536 140.879L58.8507 142.396C57.1508 140.936 55.5637 139.349 54.1041 137.649L55.6215 136.346ZM63.7854 143.669C65.5431 144.874 67.3968 145.948 69.3327 146.879L68.4665 148.681C66.438 147.706 64.4959 146.581 62.6548 145.319L63.7854 143.669ZM73.5617 148.632C75.5599 149.335 77.6273 149.891 79.7511 150.287L79.3844 152.253C77.159 151.838 74.9924 151.255 72.8982 150.519L73.5617 148.632ZM84.2918 150.879C85.3505 150.959 86.4204 151 87.5 151V153C86.3701 153 85.25 152.957 84.1412 152.874L84.2918 150.879ZM87.5 151H90.7326V153H87.5V151ZM95.3507 151H101.816V153H95.3507V151ZM106.434 151H112.899V153H106.434V151ZM117.517 151H123.983V153H117.517V151ZM128.601 151H135.066V153H128.601V151ZM139.684 151H146.149V153H139.684V151ZM150.767 151H154V153H150.767V151Z" fill="#C8C8C8"/>
</svg>
