<svg width="164" height="158" viewBox="0 0 164 158" fill="none" xmlns="http://www.w3.org/2000/svg">
<circle cx="158" cy="6" r="5" fill="#F7F7F7" stroke="#C8C8C8" stroke-width="2"/>
<path d="M153 7C153.552 7 154 6.55228 154 6C154 5.44772 153.552 5 153 5V7ZM3.3572 157.874C3.90792 157.832 4.32065 157.352 4.27907 156.801C4.23748 156.251 3.75733 155.838 3.20661 155.879L3.3572 157.874ZM7.74495 155.287C7.20202 155.388 6.84397 155.911 6.94522 156.454C7.04647 156.996 7.56867 157.355 8.1116 157.253L7.74495 155.287ZM14.5947 155.52C15.1157 155.337 15.3895 154.766 15.2063 154.245C15.0231 153.724 14.4522 153.45 13.9312 153.633L14.5947 155.52ZM18.158 151.881C17.6602 152.12 17.4506 152.717 17.6898 153.215C17.929 153.713 18.5265 153.923 19.0243 153.683L18.158 151.881ZM24.8331 150.323C25.2887 150.011 25.4049 149.388 25.0927 148.933C24.7804 148.477 24.158 148.361 23.7025 148.673L24.8331 150.323ZM27.3324 145.884C26.9134 146.243 26.8654 146.875 27.2252 147.294C27.585 147.713 28.2163 147.761 28.6353 147.401L27.3324 145.884ZM33.3796 142.657C33.7394 142.238 33.6914 141.606 33.2724 141.247C32.8534 140.887 32.222 140.935 31.8622 141.354L33.3796 142.657ZM34.6516 137.724C34.3394 138.179 34.4556 138.802 34.9112 139.114C35.3667 139.426 35.9891 139.31 36.3014 138.855L34.6516 137.724ZM39.6619 133.046C39.9011 132.548 39.6915 131.95 39.1937 131.711C38.6959 131.472 38.0984 131.682 37.8592 132.179L39.6619 133.046ZM39.612 127.953C39.4287 128.474 39.7025 129.045 40.2236 129.228C40.7446 129.411 41.3154 129.137 41.4987 128.616L39.612 127.953ZM43.2319 122.133C43.3331 121.59 42.9751 121.068 42.4321 120.967C41.8892 120.865 41.367 121.223 41.2658 121.766L43.2319 122.133ZM41.858 117.228C41.8164 117.779 42.2291 118.259 42.7798 118.3C43.3306 118.342 43.8107 117.929 43.8523 117.379L41.858 117.228ZM43.9786 110.229C43.9786 109.676 43.5309 109.229 42.9786 109.229C42.4263 109.229 41.9786 109.676 41.9786 110.229H43.9786ZM41.9786 104.81C41.9786 105.362 42.4263 105.81 42.9786 105.81C43.5309 105.81 43.9786 105.362 43.9786 104.81H41.9786ZM43.9786 97.2242C43.9786 96.6719 43.5309 96.2242 42.9786 96.2242C42.4263 96.2242 41.9786 96.6719 41.9786 97.2242H43.9786ZM41.9786 91.8058C41.9786 92.3581 42.4263 92.8058 42.9786 92.8058C43.5309 92.8058 43.9786 92.3581 43.9786 91.8058H41.9786ZM43.9786 84.2199C43.9786 83.6677 43.5309 83.2199 42.9786 83.2199C42.4263 83.2199 41.9786 83.6677 41.9786 84.2199H43.9786ZM41.9786 78.8015C41.9786 79.3538 42.4263 79.8015 42.9786 79.8015C43.5309 79.8015 43.9786 79.3538 43.9786 78.8015H41.9786ZM43.9786 71.2157C43.9786 70.6634 43.5309 70.2157 42.9786 70.2157C42.4263 70.2157 41.9786 70.6634 41.9786 71.2157H43.9786ZM41.9786 65.7972C41.9786 66.3495 42.4263 66.7972 42.9786 66.7972C43.5309 66.7972 43.9786 66.3495 43.9786 65.7972H41.9786ZM43.9786 58.2114C43.9786 57.6591 43.5309 57.2114 42.9786 57.2114C42.4263 57.2114 41.9786 57.6591 41.9786 58.2114H43.9786ZM41.9786 52.7929C41.9786 53.3452 42.4263 53.7929 42.9786 53.7929C43.5309 53.7929 43.9786 53.3452 43.9786 52.7929H41.9786ZM44.0992 45.7918C44.1408 45.241 43.7281 44.7609 43.1774 44.7193C42.6267 44.6777 42.1465 45.0905 42.1049 45.6412L44.0992 45.7918ZM42.7256 40.8844C42.6244 41.4274 42.9824 41.9496 43.5254 42.0508C44.0683 42.1521 44.5905 41.794 44.6918 41.2511L42.7256 40.8844ZM46.3464 35.0617C46.5296 34.5407 46.2558 33.9698 45.7348 33.7866C45.2138 33.6034 44.6429 33.8772 44.4597 34.3982L46.3464 35.0617ZM46.2974 29.9665C46.0582 30.4643 46.2678 31.0617 46.7656 31.3009C47.2634 31.5401 47.8608 31.3305 48.1 30.8327L46.2974 29.9665ZM51.3092 25.2854C51.6215 24.8299 51.5053 24.2075 51.0497 23.8952C50.5942 23.583 49.9717 23.6992 49.6595 24.1548L51.3092 25.2854ZM52.5827 20.3507C52.2229 20.7697 52.2709 21.4011 52.6899 21.7609C53.1089 22.1206 53.7403 22.0726 54.1001 21.6536L52.5827 20.3507ZM58.6322 17.1215C59.0512 16.7617 59.0992 16.1304 58.7394 15.7114C58.3796 15.2923 57.7483 15.2443 57.3293 15.6041L58.6322 17.1215ZM61.1333 12.6809C60.6778 12.9932 60.5616 13.6156 60.8738 14.0711C61.186 14.5267 61.8084 14.6429 62.264 14.3307L61.1333 12.6809ZM67.8113 11.1215C68.3091 10.8823 68.5187 10.2848 68.2795 9.78702C68.0403 9.28922 67.4429 9.07958 66.9451 9.31878L67.8113 11.1215ZM71.3768 7.48111C70.8558 7.66433 70.5819 8.23523 70.7652 8.75623C70.9484 9.27724 71.5193 9.55106 72.0403 9.36783L71.3768 7.48111ZM78.2297 7.71318C78.7726 7.61193 79.1307 7.08972 79.0294 6.5468C78.9282 6.00387 78.4059 5.64582 77.863 5.74707L78.2297 7.71318ZM82.6197 5.12634C82.069 5.16792 81.6563 5.64807 81.6979 6.19879C81.7395 6.74951 82.2196 7.16224 82.7703 7.12066L82.6197 5.12634ZM89.2366 7C89.7888 7 90.2366 6.55228 90.2366 6C90.2366 5.44772 89.7888 5 89.2366 5V7ZM93.8908 5C93.3385 5 92.8908 5.44772 92.8908 6C92.8908 6.55228 93.3385 7 93.8908 7V5ZM100.407 7C100.959 7 101.407 6.55228 101.407 6C101.407 5.44772 100.959 5 100.407 5V7ZM105.061 5C104.509 5 104.061 5.44772 104.061 6C104.061 6.55228 104.509 7 105.061 7V5ZM111.577 7C112.129 7 112.577 6.55228 112.577 6C112.577 5.44772 112.129 5 111.577 5V7ZM116.231 5C115.679 5 115.231 5.44772 115.231 6C115.231 6.55228 115.679 7 116.231 7V5ZM122.747 7C123.3 7 123.747 6.55228 123.747 6C123.747 5.44772 123.3 5 122.747 5V7ZM127.402 5C126.849 5 126.402 5.44772 126.402 6C126.402 6.55228 126.849 7 127.402 7V5ZM133.918 7C134.47 7 134.918 6.55228 134.918 6C134.918 5.44772 134.47 5 133.918 5V7ZM138.572 5C138.019 5 137.572 5.44772 137.572 6C137.572 6.55228 138.019 7 138.572 7V5ZM145.088 7C145.64 7 146.088 6.55228 146.088 6C146.088 5.44772 145.64 5 145.088 5V7ZM149.742 5C149.19 5 148.742 5.44772 148.742 6C148.742 6.55228 149.19 7 149.742 7V5ZM0 158C1.12934 158 2.24892 157.957 3.3572 157.874L3.20661 155.879C2.14838 155.959 1.07904 156 0 156V158ZM8.1116 157.253C10.336 156.838 12.5015 156.256 14.5947 155.52L13.9312 153.633C11.934 154.336 9.86763 154.891 7.74495 155.287L8.1116 157.253ZM19.0243 153.683C21.0518 152.709 22.9929 151.584 24.8331 150.323L23.7025 148.673C21.9457 149.877 20.0929 150.951 18.158 151.881L19.0243 153.683ZM28.6353 147.401C30.3344 145.942 31.9208 144.356 33.3796 142.657L31.8622 141.354C30.4693 142.976 28.9547 144.491 27.3324 145.884L28.6353 147.401ZM36.3014 138.855C37.5626 137.014 38.6877 135.073 39.6619 133.046L37.8592 132.179C36.9295 134.114 35.8557 135.967 34.6516 137.724L36.3014 138.855ZM41.4987 128.616C42.2348 126.523 42.8171 124.357 43.2319 122.133L41.2658 121.766C40.8699 123.889 40.3143 125.955 39.612 127.953L41.4987 128.616ZM43.8523 117.379C43.936 116.27 43.9786 115.151 43.9786 114.021H41.9786C41.9786 115.1 41.9379 116.17 41.858 117.228L43.8523 117.379ZM43.9786 114.021V110.229H41.9786V114.021H43.9786ZM43.9786 104.81V97.2242H41.9786V104.81H43.9786ZM43.9786 91.8058V84.2199H41.9786V91.8058H43.9786ZM43.9786 78.8015V71.2157H41.9786V78.8015H43.9786ZM43.9786 65.7972V58.2114H41.9786V65.7972H43.9786ZM43.9786 52.7929V49H41.9786V52.7929H43.9786ZM43.9786 49C43.9786 47.9204 44.0193 46.8505 44.0992 45.7918L42.1049 45.6412C42.0212 46.75 41.9786 47.8701 41.9786 49H43.9786ZM44.6918 41.2511C45.0878 39.1273 45.6437 37.0599 46.3464 35.0617L44.4597 34.3982C43.7232 36.4924 43.1407 38.659 42.7256 40.8844L44.6918 41.2511ZM48.1 30.8327C49.0303 28.8968 50.1046 27.0431 51.3092 25.2854L49.6595 24.1548C48.3977 25.9959 47.2721 27.938 46.2974 29.9665L48.1 30.8327ZM54.1001 21.6536C55.4937 20.0306 57.0091 18.5151 58.6322 17.1215L57.3293 15.6041C55.6294 17.0637 54.0423 18.6508 52.5827 20.3507L54.1001 21.6536ZM62.264 14.3307C64.0216 13.126 65.8754 12.0517 67.8113 11.1215L66.9451 9.31878C64.9166 10.2935 62.9745 11.4191 61.1333 12.6809L62.264 14.3307ZM72.0403 9.36783C74.0385 8.6651 76.1059 8.10923 78.2297 7.71318L77.863 5.74707C75.6376 6.16209 73.4709 6.74463 71.3768 7.48111L72.0403 9.36783ZM82.7703 7.12066C83.8291 7.04071 84.899 7 85.9786 7V5C84.8487 5 83.7286 5.04261 82.6197 5.12634L82.7703 7.12066ZM85.9786 7H89.2366V5H85.9786V7ZM93.8908 7H100.407V5H93.8908V7ZM105.061 7H111.577V5H105.061V7ZM116.231 7H122.747V5H116.231V7ZM127.402 7H133.918V5H127.402V7ZM138.572 7H145.088V5H138.572V7ZM149.742 7H153V5H149.742V7Z" fill="#C8C8C8"/>
</svg>
