<svg viewBox="0 0 193 193" fill="none" xmlns="http://www.w3.org/2000/svg">
<circle cx="96.5" cy="96.5" r="78.5" fill="#111111"/>
<g filter="url(#filter0_f_6_848)">
<circle cx="96.4994" cy="96.5001" r="76.3819" fill="url(#paint0_linear_6_848)"/>
</g>
<circle cx="96.4513" cy="96.5" r="63.1442" fill="#2C2C2C"/>
<path fill-rule="evenodd" clip-rule="evenodd" d="M76.0913 52.9323C76.0913 49.0466 79.2706 45.8673 83.1563 45.8673C87.0421 45.8673 90.2213 49.0466 90.2213 52.9323C90.2213 56.8181 87.0421 59.9973 83.1563 59.9973C79.2706 59.9973 76.0913 56.8181 76.0913 52.9323ZM76.9747 52.9322C76.9747 56.3587 79.73 59.1141 83.1566 59.1141C86.5478 59.1141 89.3384 56.3587 89.3384 52.9322C89.3384 49.5057 86.5831 46.7503 83.1566 46.7503C79.73 46.7503 76.9747 49.5057 76.9747 52.9322Z" fill="#F9F9F9"/>
<path d="M81.708 50.4248L82.026 50.7074L82.6618 50.0715L82.2026 49.6476C81.92 49.4003 81.5314 49.259 81.1428 49.259C80.2597 49.259 79.5532 49.9655 79.5532 50.8487V54.9817C79.5532 55.6529 79.9418 56.2887 80.5776 56.536C81.1782 56.7833 81.8493 56.6066 82.2732 56.1827L84.4987 53.9219L83.8982 53.2861L81.7434 55.4409C81.2488 55.9355 80.4363 55.5822 80.401 54.911V51.0253C80.401 50.3188 81.2135 49.9655 81.708 50.4248Z" fill="#F9F9F9"/>
<path d="M82.0624 54.4516L82.6982 53.8157C82.6982 53.8157 82.4863 53.5685 82.4156 53.5331C82.0977 53.2152 82.133 52.6147 82.4863 52.2614L84.3232 50.4245C84.6411 50.1066 85.171 50.1066 85.5242 50.4245C85.8421 50.7425 85.8421 51.2723 85.5242 51.6256L85.3123 51.8375L85.2063 51.9435L85.8775 52.6147L85.9834 52.5087L86.1954 52.2968C86.8666 51.6256 86.8666 50.4952 86.1954 49.7887C85.5242 49.0822 84.3938 49.1175 83.6873 49.7887L81.8504 51.6256C81.1792 52.2968 81.1086 53.4978 81.7798 54.169C81.8504 54.275 82.0624 54.4516 82.0624 54.4516Z" fill="#F9F9F9"/>
<path d="M86.1934 53.6394L84.0033 51.4492L83.3674 52.0851L85.5576 54.2752C85.8755 54.5931 85.8755 55.123 85.5576 55.4763C85.2397 55.7942 84.7098 55.7942 84.3565 55.4763L84.1446 55.2643L84.0033 55.123L83.3674 55.7589L83.5087 55.9002L83.7207 56.1121C84.3919 56.8186 85.4869 56.8186 86.1934 56.1121C86.8999 55.4056 86.8646 54.3105 86.1934 53.6394Z" fill="#F9F9F9"/>
<path d="M97.2853 54.84H96.1549L94.6006 52.7205L93.8234 53.5683V54.84H92.8696V49.8945H93.8234V52.3673L96.0489 49.8945H97.1793L95.2717 51.9787L97.2853 54.84Z" fill="#F9F9F9"/>
<path d="M98.981 49.8945H102.619V50.707H99.9347V51.9434H102.337V52.7559H99.9347V53.9922H102.69V54.8047H98.981V49.8945Z" fill="#F9F9F9"/>
<path d="M108.625 49.8945L106.823 53.2151V54.84H105.87V53.2504L104.033 49.8945H104.986L106.329 52.226L107.671 49.8945H108.625Z" fill="#F9F9F9"/>
<path fill-rule="evenodd" clip-rule="evenodd" d="M114.594 51.0959C114.347 50.7073 114.029 50.3894 113.64 50.1774C113.217 49.9301 112.793 49.8595 112.298 49.8595C111.804 49.8595 111.344 49.9655 110.956 50.1774C110.532 50.3894 110.249 50.7073 110.002 51.0959C109.755 51.4844 109.649 51.9083 109.649 52.3676C109.649 52.8268 109.755 53.2507 110.002 53.6393C110.249 54.0278 110.567 54.3458 110.956 54.5577C111.38 54.805 111.804 54.911 112.298 54.911C112.793 54.911 113.252 54.7697 113.64 54.5577C114.029 54.3458 114.347 54.0278 114.594 53.6393C114.841 53.2507 114.947 52.8268 114.947 52.3676C114.947 51.9083 114.841 51.4844 114.594 51.0959ZM110.849 51.5197C110.991 51.2724 111.203 51.0605 111.45 50.9192C111.732 50.7426 112.015 50.6719 112.298 50.7072C112.58 50.7072 112.863 50.7779 113.11 50.9192C113.357 51.0605 113.569 51.2724 113.711 51.5197C113.852 51.767 113.923 52.0496 113.923 52.3675C113.923 52.6854 113.852 52.968 113.711 53.2153C113.569 53.4626 113.357 53.6745 113.11 53.8158C112.863 53.9571 112.58 54.0278 112.298 54.0278C111.98 54.0278 111.697 53.9571 111.45 53.8158C111.203 53.6745 110.991 53.4626 110.849 53.2153C110.708 52.968 110.637 52.6854 110.637 52.3675C110.637 52.0496 110.708 51.767 110.849 51.5197Z" fill="#F9F9F9"/>
<rect x="102.478" y="56.6061" width="3.49717" height="0.812475" fill="#F9F9F9"/>
<path fill-rule="evenodd" clip-rule="evenodd" d="M115.727 50.3891L115.868 50.6011H116.01L115.833 50.3538L115.939 50.2478C115.974 50.2125 115.974 50.1772 115.974 50.1065C115.974 50.0359 115.939 49.9652 115.904 49.9299C115.868 49.8946 115.798 49.8593 115.692 49.8593H115.374V50.6011H115.515V50.3891H115.692H115.727ZM115.726 50.2476H115.549V49.965H115.726C115.761 49.965 115.797 49.965 115.832 50.0003C115.867 50.0357 115.867 50.071 115.867 50.1063C115.867 50.1416 115.867 50.177 115.832 50.2123C115.832 50.2476 115.797 50.2476 115.726 50.2476Z" fill="#F9F9F9"/>
<circle cx="115.69" cy="50.2119" r="0.7065" stroke="#111111" stroke-width="0.25"/>
<circle opacity="0.09" cx="59.1694" cy="94.9113" r="7.28078" fill="#404040"/>
<circle opacity="0.09" cx="133.83" cy="94.9113" r="7.28078" fill="#404040"/>
<rect opacity="0.09" x="89.4346" y="68.568" width="14.032" height="55.8634" rx="7.01602" fill="#404040"/>
<defs>
<filter id="filter0_f_6_848" x="0.117432" y="0.118164" width="192.764" height="192.764" filterUnits="userSpaceOnUse" color-interpolation-filters="sRGB">
<feFlood flood-opacity="0" result="BackgroundImageFix"/>
<feBlend mode="normal" in="SourceGraphic" in2="BackgroundImageFix" result="shape"/>
<feGaussianBlur stdDeviation="10" result="effect1_foregroundBlur_6_848"/>
</filter>
<linearGradient id="paint0_linear_6_848" x1="96.3612" y1="16.5959" x2="29.7794" y2="177.847" gradientUnits="userSpaceOnUse">
<stop stop-color="#00FA95"/>
<stop offset="1" stop-color="#00A8F6"/>
</linearGradient>
</defs>
</svg>
